<svg width="20" height="20" viewBox="0 0 24 24" xmlns="http://www.w3.org/2000/svg" role="img"
    aria-labelledby="gTitle">
    <title id="gTitle">Google</title>
    <path
        d="M23.49 12.27c0-.79-.07-1.54-.2-2.27H12v4.3h6.47a5.54 5.54 0 0 1-2.4 3.63v3h3.88c2.27-2.1 3.54-5.19 3.54-8.66z"
        fill="#4285F4" />
    <path
        d="M12 24c3.24 0 5.96-1.07 7.95-2.9l-3.88-3c-1.08.73-2.46 1.17-4.07 1.17-3.13 0-5.79-2.12-6.74-4.97H1.25v3.1A12 12 0 0 0 12 24z"
        fill="#34A853" />
    <path d="M5.26 14.3a7.2 7.2 0 0 1 0-4.6V6.6H1.25a12 12 0 0 0 0 10.8l4.01-3.1z" fill="#FBBC05" />
    <path
        d="M12 4.77c1.76 0 3.34.6 4.59 1.78l3.44-3.44C17.95 1.14 15.23 0 12 0A12 12 0 0 0 1.25 6.6l4.01 3.1c.95-2.85 3.61-4.93 6.74-4.93z"
        fill="#EA4335" />
</svg>